<svg xmlns="http://www.w3.org/2000/svg" width="600" height="340" viewBox="0 0 600 340">
  <!-- Outer Window Frame -->
  <rect x="4" y="4" width="592" height="332" rx="10" fill="#FFF9E6" stroke="#000000" stroke-width="4"/>

  <!-- Top Bar / Titlebar -->
  <path d="M 4,14 A 10,10 0 0,1 14,4 L 586,4 A 10,10 0 0,1 596,14 L 596,44 L 4,44 Z" fill="#FFFFFF" stroke="#000000" stroke-width="4"/>
  <line x1="4" y1="44" x2="596" y2="44" stroke="#000000" stroke-width="4"/>

  <!-- Window Dots -->
  <circle cx="24" cy="24" r="6" fill="#FF5F56" stroke="#000000" stroke-width="1.5"/>
  <circle cx="42" cy="24" r="6" fill="#FFBD2E" stroke="#000000" stroke-width="1.5"/>
  <circle cx="60" cy="24" r="6" fill="#27C93F" stroke="#000000" stroke-width="1.5"/>

  <!-- URL Bar Mockup -->
  <rect x="85" y="12" width="370" height="24" rx="5" fill="#F1F5F9" stroke="#000000" stroke-width="1.5"/>
  <text x="100" y="28" font-family="monospace" font-size="10" font-weight="bold" fill="#475569">🔒 https://www.lg.com/id</text>

  <!-- Tag Pill -->
  <rect x="470" y="12" width="112" height="24" rx="5" fill="#FFE600" stroke="#000000" stroke-width="1.5"/>
  <text x="526" y="28" font-family="sans-serif" font-size="9" font-weight="900" text-anchor="middle" fill="#000000">E-COMMERCE</text>

  <!-- App Custom Content -->
  
            <!-- Product Grid -->
            <rect x="40" y="80" width="160" height="180" rx="6" fill="#FFFFFF" stroke="#000" stroke-width="2"/>
            <rect x="52" y="92" width="136" height="85" rx="4" fill="#00E5FF" stroke="#000" stroke-width="1.5"/>
            <rect x="52" y="190" width="90" height="12" rx="2" fill="#000"/>
            <rect x="52" y="210" width="50" height="10" rx="2" fill="#888"/>
            <rect x="52" y="230" width="136" height="20" rx="3" fill="#FFE600" stroke="#000" stroke-width="1.5"/>
            <text x="120" y="244" font-family="sans-serif" font-size="10" font-weight="900" text-anchor="middle" fill="#000">ADD TO CART</text>

            <rect x="220" y="80" width="160" height="180" rx="6" fill="#FFFFFF" stroke="#000" stroke-width="2"/>
            <rect x="232" y="92" width="136" height="85" rx="4" fill="#FF6B8B" stroke="#000" stroke-width="1.5"/>
            <rect x="232" y="190" width="90" height="12" rx="2" fill="#000"/>
            <rect x="232" y="210" width="50" height="10" rx="2" fill="#888"/>
            <rect x="232" y="230" width="136" height="20" rx="3" fill="#FFE600" stroke="#000" stroke-width="1.5"/>
            <text x="300" y="244" font-family="sans-serif" font-size="10" font-weight="900" text-anchor="middle" fill="#000">ADD TO CART</text>

            <rect x="400" y="80" width="160" height="180" rx="6" fill="#FFFFFF" stroke="#000" stroke-width="2"/>
            <rect x="412" y="92" width="136" height="85" rx="4" fill="#2ED573" stroke="#000" stroke-width="1.5"/>
            <rect x="412" y="190" width="90" height="12" rx="2" fill="#000"/>
            <rect x="412" y="210" width="50" height="10" rx="2" fill="#888"/>
            <rect x="412" y="230" width="136" height="20" rx="3" fill="#FFE600" stroke="#000" stroke-width="1.5"/>
            <text x="480" y="244" font-family="sans-serif" font-size="10" font-weight="900" text-anchor="middle" fill="#000">ADD TO CART</text>
        

</svg>