<svg xmlns="http://www.w3.org/2000/svg" width="600" height="340" viewBox="0 0 600 340">
  <!-- Outer Window Frame -->
  <rect x="4" y="4" width="592" height="332" rx="10" fill="#F5F3FF" stroke="#000000" stroke-width="4"/>

  <!-- Top Bar / Titlebar -->
  <path d="M 4,14 A 10,10 0 0,1 14,4 L 586,4 A 10,10 0 0,1 596,14 L 596,44 L 4,44 Z" fill="#FFFFFF" stroke="#000000" stroke-width="4"/>
  <line x1="4" y1="44" x2="596" y2="44" stroke="#000000" stroke-width="4"/>

  <!-- Window Dots -->
  <circle cx="24" cy="24" r="6" fill="#FF5F56" stroke="#000000" stroke-width="1.5"/>
  <circle cx="42" cy="24" r="6" fill="#FFBD2E" stroke="#000000" stroke-width="1.5"/>
  <circle cx="60" cy="24" r="6" fill="#27C93F" stroke="#000000" stroke-width="1.5"/>

  <!-- URL Bar Mockup -->
  <rect x="85" y="12" width="370" height="24" rx="5" fill="#F1F5F9" stroke="#000000" stroke-width="1.5"/>
  <text x="100" y="28" font-family="monospace" font-size="10" font-weight="bold" fill="#475569">🔒 https://ai.workspace.dev/chat</text>

  <!-- Tag Pill -->
  <rect x="470" y="12" width="112" height="24" rx="5" fill="#B388EB" stroke="#000000" stroke-width="1.5"/>
  <text x="526" y="28" font-family="sans-serif" font-size="9" font-weight="900" text-anchor="middle" fill="#000000">AI COPILOT</text>

  <!-- App Custom Content -->
  
            <!-- History sidebar -->
            <rect x="30" y="70" width="100" height="200" rx="4" fill="#FFFFFF" stroke="#000" stroke-width="2"/>
            <rect x="40" y="85" width="80" height="22" rx="3" fill="#B388EB" stroke="#000" stroke-width="1.5"/>
            <text x="80" y="100" font-family="sans-serif" font-size="9" font-weight="900" text-anchor="middle" fill="#000">+ NEW CHAT</text>
            <rect x="40" y="120" width="80" height="12" rx="2" fill="#eee"/>
            <rect x="40" y="140" width="70" height="12" rx="2" fill="#eee"/>
            <rect x="40" y="160" width="75" height="12" rx="2" fill="#eee"/>

            <!-- Chat Window -->
            <rect x="145" y="70" width="425" height="200" rx="4" fill="#FFFFFF" stroke="#000" stroke-width="2"/>
            <!-- User Prompt -->
            <rect x="310" y="85" width="245" height="32" rx="4" fill="#FFE600" stroke="#000" stroke-width="1.5"/>
            <text x="320" y="105" font-family="sans-serif" font-size="10" font-weight="700" fill="#000">Buatkan arsitektur Next.js 15 App Router</text>
            
            <!-- AI Response -->
            <rect x="160" y="130" width="290" height="50" rx="4" fill="#F3E8FF" stroke="#000" stroke-width="1.5"/>
            <circle cx="175" cy="145" r="7" fill="#B388EB"/>
            <text x="188" y="148" font-family="sans-serif" font-size="10" font-weight="800" fill="#000">Next.js Copilot AI</text>
            <text x="175" y="168" font-family="sans-serif" font-size="9" font-weight="600" fill="#333">Tentu! Berikut struktur folder app router rekomendasi...</text>

            <!-- Input bar -->
            <rect x="160" y="225" width="400" height="32" rx="4" fill="#FFFFFF" stroke="#000" stroke-width="1.5"/>
            <text x="175" y="245" font-family="sans-serif" font-size="10" fill="#999">Tanyakan sesuatu pada model AI...</text>
            <rect x="520" y="229" width="32" height="24" rx="3" fill="#000"/>
            <text x="536" y="245" font-family="sans-serif" font-size="12" font-weight="900" text-anchor="middle" fill="#FFF">➔</text>
        

  <!-- Watermark / Placeholder Notice Footer -->
  <rect x="15" y="288" width="570" height="38" rx="6" fill="#FFFFFF" stroke="#000000" stroke-width="2.5"/>
  <rect x="25" y="296" width="22" height="22" rx="3" fill="#FFE600" stroke="#000000" stroke-width="1.5"/>
  <text x="36" y="311" font-family="sans-serif" font-size="11" font-weight="900" text-anchor="middle" fill="#000000">📷</text>
  <text x="56" y="306" font-family="sans-serif" font-size="10" font-weight="900" fill="#000000">PLACEHOLDER SCREENSHOT • AI COPILOT & ASSISTANT</text>
  <text x="56" y="320" font-family="sans-serif" font-size="9" font-weight="700" fill="#64748B">Simpan tangkapan layar asli di: public/screenshots/03-ai-copilot.svg</text>
  <rect x="480" y="296" width="95" height="22" rx="4" fill="#000000"/>
  <text x="527" y="311" font-family="sans-serif" font-size="9" font-weight="900" text-anchor="middle" fill="#FFE600">600 × 340 PX</text>
</svg>