<svg xmlns="http://www.w3.org/2000/svg" width="600" height="340" viewBox="0 0 600 340">
  <!-- Outer Window Frame -->
  <rect x="4" y="4" width="592" height="332" rx="10" fill="#FFF0F5" stroke="#000000" stroke-width="4"/>

  <!-- Top Bar / Titlebar -->
  <path d="M 4,14 A 10,10 0 0,1 14,4 L 586,4 A 10,10 0 0,1 596,14 L 596,44 L 4,44 Z" fill="#FFFFFF" stroke="#000000" stroke-width="4"/>
  <line x1="4" y1="44" x2="596" y2="44" stroke="#000000" stroke-width="4"/>

  <!-- Window Dots -->
  <circle cx="24" cy="24" r="6" fill="#FF5F56" stroke="#000000" stroke-width="1.5"/>
  <circle cx="42" cy="24" r="6" fill="#FFBD2E" stroke="#000000" stroke-width="1.5"/>
  <circle cx="60" cy="24" r="6" fill="#27C93F" stroke="#000000" stroke-width="1.5"/>

  <!-- URL Bar Mockup -->
  <rect x="85" y="12" width="370" height="24" rx="5" fill="#F1F5F9" stroke="#000000" stroke-width="1.5"/>
  <text x="100" y="28" font-family="monospace" font-size="10" font-weight="bold" fill="#475569">🔒 https://sandbox.hsi.id/courses/nextjs</text>

  <!-- Tag Pill -->
  <rect x="470" y="12" width="112" height="24" rx="5" fill="#FF6B8B" stroke="#000000" stroke-width="1.5"/>
  <text x="526" y="28" font-family="sans-serif" font-size="9" font-weight="900" text-anchor="middle" fill="#000000">LMS & EDTECH</text>

  <!-- App Custom Content -->
  
            <!-- Course Banner -->
            <rect x="35" y="70" width="530" height="50" rx="4" fill="#FFE600" stroke="#000" stroke-width="2"/>
            <text x="50" y="92" font-family="sans-serif" font-size="12" font-weight="900" fill="#000">KURSUS NEXT.JS FULLSTACK DEVELOPER</text>
            <rect x="50" y="103" width="220" height="8" rx="2" fill="#FFF" stroke="#000" stroke-width="1"/>
            <rect x="50" y="103" width="165" height="8" rx="2" fill="#2ED573"/>
            <text x="280" y="111" font-family="sans-serif" font-size="9" font-weight="900" fill="#000">75% SELESAI</text>

            <!-- Video Player placeholder -->
            <rect x="35" y="130" width="320" height="140" rx="4" fill="#111" stroke="#000" stroke-width="2"/>
            <circle cx="195" cy="200" r="22" fill="#FF6B8B" stroke="#FFF" stroke-width="2"/>
            <polygon points="190,190 205,200 190,210" fill="#FFF"/>

            <!-- Lesson List -->
            <rect x="365" y="130" width="200" height="140" rx="4" fill="#FFFFFF" stroke="#000" stroke-width="2"/>
            <rect x="375" y="140" width="180" height="24" rx="3" fill="#2ED573" stroke="#000" stroke-width="1"/>
            <text x="385" y="156" font-family="sans-serif" font-size="9" font-weight="900" fill="#000">✓ 01. Setup & Environment</text>
            <rect x="375" y="170" width="180" height="24" rx="3" fill="#FFE600" stroke="#000" stroke-width="1"/>
            <text x="385" y="186" font-family="sans-serif" font-size="9" font-weight="900" fill="#000">▶ 02. Routing & Layout</text>
            <rect x="375" y="200" width="180" height="24" rx="3" fill="#FFF" stroke="#000" stroke-width="1"/>
            <text x="385" y="216" font-family="sans-serif" font-size="9" font-weight="700" fill="#666">🔒 03. Server Components</text>
            <rect x="375" y="230" width="180" height="24" rx="3" fill="#FFF" stroke="#000" stroke-width="1"/>
            <text x="385" y="246" font-family="sans-serif" font-size="9" font-weight="700" fill="#666">🔒 04. Database & Prisma</text>
        

  <!-- Watermark / Placeholder Notice Footer -->
  <rect x="15" y="288" width="570" height="38" rx="6" fill="#FFFFFF" stroke="#000000" stroke-width="2.5"/>
  <rect x="25" y="296" width="22" height="22" rx="3" fill="#FFE600" stroke="#000000" stroke-width="1.5"/>
  <text x="36" y="311" font-family="sans-serif" font-size="11" font-weight="900" text-anchor="middle" fill="#000000">📷</text>
  <text x="56" y="306" font-family="sans-serif" font-size="10" font-weight="900" fill="#000000">PLACEHOLDER SCREENSHOT • LMS & LEARNING PORTAL</text>
  <text x="56" y="320" font-family="sans-serif" font-size="9" font-weight="700" fill="#64748B">Simpan tangkapan layar asli di: public/screenshots/04-lms-education.svg</text>
  <rect x="480" y="296" width="95" height="22" rx="4" fill="#000000"/>
  <text x="527" y="311" font-family="sans-serif" font-size="9" font-weight="900" text-anchor="middle" fill="#FFE600">600 × 340 PX</text>
</svg>